<?xml version="1.0" encoding="UTF-8"?>
<svg version="1.1" xmlns="http://www.w3.org/2000/svg" width="16" height="16">
<path d="M0 0 C4.62 0 9.24 0 14 0 C14 4.33333333 14 8.66666667 14 13 C9.38 13 4.76 13 0 13 C-1.92024768 9.15950464 -0.43149256 4.12315118 0 0 Z M3 8 C4 11 4 11 4 11 Z M5 9 C6 11 6 11 6 11 Z M8 9 C8 9.66 8 10.32 8 11 C8.66 11 9.32 11 10 11 C10 10.34 10 9.68 10 9 C9.34 9 8.68 9 8 9 Z " fill="#E7E8EA" transform="translate(1,1)"/>
<path d="M0 0 C4.62 0 9.24 0 14 0 C14 3.3 14 6.6 14 10 C13.01 10.495 13.01 10.495 12 11 C12 9.68 12 8.36 12 7 C11.01 7 10.02 7 9 7 C9 6.01 9 5.02 9 4 C8.34 3.67 7.68 3.34 7 3 C7 3.66 7 4.32 7 5 C6.34 4.67 5.68 4.34 5 4 C5.33 3.34 5.66 2.68 6 2 C5.01 2 4.02 2 3 2 C3 2.66 3 3.32 3 4 C2.34 4 1.68 4 1 4 C0.67 4.99 0.34 5.98 0 7 C0 4.69 0 2.38 0 0 Z " fill="#EDEEF0" transform="translate(1,1)"/>
<path d="M0 0 C0.99 0 1.98 0 3 0 C3 0.66 3 1.32 3 2 C3.66 2.33 4.32 2.66 5 3 C5 4.98 5 6.96 5 9 C4.01 9.495 4.01 9.495 3 10 C3 8.35 3 6.7 3 5 C2.01 5 1.02 5 0 5 C-0.33 4.01 -0.66 3.02 -1 2 C-0.67 1.34 -0.34 0.68 0 0 Z " fill="#6E85B1" transform="translate(4,3)"/>
<path d="M0 0 C0.99 0.33 1.98 0.66 3 1 C2.67 1.99 2.34 2.98 2 4 C2.99 4 3.98 4 5 4 C5.33 5.65 5.66 7.3 6 9 C4.68 8.67 3.36 8.34 2 8 C2.33 7.34 2.66 6.68 3 6 C2.34 6 1.68 6 1 6 C0.67 4.02 0.34 2.04 0 0 Z " fill="#CBD1DC" transform="translate(8,4)"/>
</svg>
